<svg width="1024" height="964" viewBox="0 0 1024 964" fill="none" xmlns="http://www.w3.org/2000/svg">
<path d="M511.999 963.76C794.768 963.76 1024 831.409 1024 668.146C1024 504.883 794.768 372.532 511.999 372.532C229.23 372.532 0 504.883 0 668.146C0 831.409 229.23 963.76 511.999 963.76Z" fill="#F5F5F5"/>
<path d="M849.589 813.114C929.809 813.114 994.84 775.566 994.84 729.249C994.84 682.932 929.809 645.385 849.589 645.385C769.37 645.385 704.339 682.932 704.339 729.249C704.339 775.566 769.37 813.114 849.589 813.114Z" fill="#E0E0E0"/>
<path d="M481.992 774.489L318.136 679.853L505.428 571.726L669.305 666.34L481.992 774.489Z" fill="#E0E0E0"/>
<path d="M35.8176 745.221L247.154 867.231L424.414 764.914L213.077 642.904L35.8176 745.221Z" fill="#E0E0E0"/>
<path d="M348.318 171.727V159.716C348.228 159.022 347.96 158.363 347.541 157.802C347.121 157.242 346.565 156.799 345.924 156.517L273.397 114.911C271.669 114.042 269.761 113.59 267.826 113.59C265.892 113.59 263.984 114.042 262.256 114.911L53.8133 234.593C53.1729 234.875 52.6162 235.318 52.1969 235.878C51.7776 236.439 51.5099 237.098 51.4197 237.792V249.804C51.5078 250.498 51.7748 251.158 52.1943 251.719C52.6139 252.28 53.1717 252.722 53.8133 253.002L126.319 294.543C128.047 295.412 129.955 295.864 131.889 295.864C133.824 295.864 135.732 295.412 137.46 294.543L345.902 174.861C346.544 174.58 347.102 174.138 347.521 173.577C347.941 173.017 348.208 172.357 348.296 171.662L348.318 171.727Z" fill="#F0F0F0"/>
<path d="M53.8134 240.925L126.319 282.531C128.044 283.41 129.953 283.868 131.889 283.868C133.826 283.868 135.735 283.41 137.46 282.531L345.903 162.849C348.971 161.087 348.971 158.236 345.903 156.452L273.397 114.911C271.669 114.042 269.761 113.59 267.826 113.59C265.892 113.59 263.984 114.042 262.256 114.911L53.8134 234.593C50.7452 236.312 50.7452 239.163 53.8134 240.925Z" fill="#FAFAFA"/>
<path d="M131.889 283.88V295.87C129.951 295.899 128.036 295.442 126.319 294.543L53.8132 253.046C53.1716 252.765 52.6137 252.323 52.1942 251.763C51.7746 251.202 51.5077 250.542 51.4196 249.847V237.814C51.4622 237.327 51.6187 236.858 51.8765 236.443C51.0279 237.988 51.6589 239.772 53.8132 241.013L126.319 282.553C128.031 283.465 129.949 283.922 131.889 283.88Z" fill="#E0E0E0"/>
<path d="M170.84 182.39L232.269 217.403L333.738 159.172L272.33 124.138L170.84 182.39Z" fill="#E0E0E0"/>
<path d="M232.966 214.748L173.712 180.736C175.252 175.713 175.138 170.327 173.386 165.374L232.269 199.015C232.269 199.015 233.401 202.736 232.966 214.748Z" fill="white"/>
<path d="M229.245 194.293C230.899 195.361 232.277 196.805 233.267 198.507C234.258 200.208 234.833 202.119 234.946 204.085V215.531C234.946 219.143 232.378 220.601 229.245 218.817L170.927 185.219V182.39L228.549 215.248C230.442 216.336 231.965 215.444 231.965 213.29V202.671C231.899 201.491 231.556 200.344 230.962 199.323C230.368 198.302 229.541 197.436 228.549 196.795L170.927 163.828V160.608L229.245 194.293Z" fill="#EBEBEB"/>
<path d="M170.927 160.717L272.33 102.464L330.713 135.975C332.371 137.045 333.752 138.491 334.743 140.197C335.734 141.903 336.307 143.819 336.415 145.789V157.3C336.492 158.004 336.377 158.716 336.082 159.36C335.787 160.003 335.323 160.555 334.739 160.956L233.271 219.209C233.843 218.799 234.298 218.245 234.588 217.603C234.879 216.961 234.995 216.254 234.924 215.553V204.085C234.818 202.118 234.246 200.204 233.255 198.501C232.264 196.799 230.882 195.356 229.223 194.293L170.927 160.717Z" fill="#FAFAFA"/>
<path d="M233.271 198.449C234.305 200.128 234.883 202.049 234.946 204.02V215.488C235.016 216.189 234.901 216.896 234.61 217.538C234.32 218.179 233.865 218.733 233.292 219.143L334.761 160.891C335.344 160.49 335.808 159.938 336.104 159.294C336.399 158.651 336.514 157.939 336.436 157.235V145.789C336.373 143.818 335.795 141.898 334.761 140.219L233.271 198.449Z" fill="#F0F0F0"/>
<path d="M108.388 95.24L107.801 102.987L176.39 139.783L177.935 135.257L108.388 95.24Z" fill="#EBEBEB"/>
<path d="M177.02 137.063L110.586 98.7214L99.0314 105.38L166.771 145.006L177.02 137.063Z" fill="white"/>
<path d="M154.303 140.893L147.775 217.881C147.807 218.75 148.047 219.599 148.475 220.356C148.902 221.114 149.506 221.757 150.234 222.233L188.771 244.538C189.386 244.878 190.071 245.071 190.773 245.103L166.837 147.595C166.139 147.557 165.456 147.372 164.835 147.051L162.071 145.441L154.303 140.893Z" fill="#E0E0E0"/>
<path d="M169.709 146.964L176.585 141.067L181.612 136.715C182.134 135.888 182.743 135.279 182.417 134.539L206.049 231.329C206.375 232.004 206.462 233.505 205.526 234.071L193.624 244.255C192.723 244.732 191.7 244.929 190.686 244.821L166.75 147.312C167.749 147.485 168.777 147.364 169.709 146.964Z" fill="#F0F0F0"/>
<path d="M181.634 133.908C182.983 134.691 182.656 135.562 181.634 136.737L169.709 146.942C168.95 147.339 168.106 147.546 167.25 147.546C166.394 147.546 165.55 147.339 164.791 146.942L154.303 140.893C152.932 140.11 152.692 138.978 153.759 138.369C154.459 138.085 155.216 137.964 155.97 138.017C156.724 138.07 157.457 138.294 158.111 138.673L166.38 143.461C166.633 143.589 166.912 143.656 167.196 143.656C167.479 143.656 167.759 143.589 168.012 143.461L176.716 135.888C177.173 135.627 177.173 135.214 176.716 134.952L108.388 95.2398L111.652 93.3467L181.634 133.908Z" fill="#FAFAFA"/>
<path d="M88.5863 98.9612L153.933 136.694V261.032L88.5863 223.278V98.9612Z" fill="#EBEBEB"/>
<path d="M151.822 138.761L88.5864 102.465C84.7189 106.565 79.6539 109.337 74.1157 110.385L136.829 146.529C136.829 146.529 140.876 145.572 151.822 138.761Z" fill="white"/>
<path d="M130.758 146.421C132.643 147.364 134.721 147.856 136.829 147.856C138.937 147.856 141.016 147.364 142.9 146.421L153.519 140.197C156.87 138.26 156.87 135.149 153.519 133.212L91.2194 97.438L88.5864 98.9612L149.885 134.365C150.337 134.497 150.734 134.772 151.017 135.149C151.299 135.525 151.452 135.983 151.452 136.454C151.452 136.925 151.299 137.383 151.017 137.76C150.734 138.137 150.337 138.411 149.885 138.543L139.984 144.244C138.853 144.813 137.605 145.109 136.339 145.109C135.074 145.109 133.826 144.813 132.695 144.244L71.4175 108.819L68.4146 110.538L130.758 146.421Z" fill="#FAFAFA"/>
<path d="M68.4362 110.538V234.854L130.758 270.628C132.642 271.572 134.721 272.064 136.829 272.064C138.937 272.064 141.015 271.572 142.9 270.628L153.563 264.514C154.256 264.208 154.854 263.721 155.294 263.105C155.734 262.489 156.001 261.765 156.065 261.01V136.694C155.998 137.451 155.725 138.175 155.276 138.788C154.827 139.402 154.22 139.881 153.519 140.175L142.9 146.42C141.015 147.364 138.937 147.856 136.829 147.856C134.721 147.856 132.642 147.364 130.758 146.42L68.4362 110.538Z" fill="#EBEBEB"/>
<path d="M136.829 147.748C138.942 147.789 141.03 147.295 142.9 146.312L153.519 140.175C154.212 139.875 154.811 139.393 155.251 138.78C155.692 138.167 155.958 137.446 156.022 136.694V261.01C155.957 261.765 155.691 262.489 155.251 263.105C154.81 263.722 154.212 264.208 153.519 264.514L142.857 270.629C140.987 271.612 138.898 272.106 136.786 272.065L136.829 147.748Z" fill="#F0F0F0"/>
<path d="M661.776 599.035C661.45 593.53 660.71 586.936 659.818 579.277C656.489 550.205 651.941 510.384 663.996 472.238C671.329 449.019 688.999 421.492 716.591 413.855C722.727 412.157 737.568 409.655 743.269 422.82C744.07 424.722 744.548 426.744 744.683 428.804C745.271 437.16 741.506 444.537 737.328 451.261C732.519 459.073 726.949 466.493 721.552 473.717C716.46 480.55 711.172 487.6 706.559 494.912C701.577 502.856 697.212 511.171 693.503 519.784L691.74 519.022C695.442 510.323 699.807 501.92 704.797 493.889C709.432 486.512 714.741 479.419 719.877 472.564C725.23 465.383 730.757 457.985 735.544 450.26C739.548 443.732 743.16 436.747 742.616 428.935C742.498 427.092 742.071 425.283 741.354 423.581C736.262 411.809 722.597 414.159 716.961 415.704C690.108 423.146 672.852 450.086 665.672 472.803C653.747 510.579 658.273 550.161 661.581 579.059C662.451 586.741 663.213 593.378 663.539 598.926L661.776 599.035Z" fill="#47389F"/>
<path d="M663.735 630.675C663.59 630.695 663.444 630.695 663.3 630.675C662.882 630.593 662.489 630.415 662.153 630.154C661.816 629.893 661.546 629.557 661.363 629.173C660.983 628.096 660.983 626.921 661.363 625.844C661.67 623.759 661.67 621.64 661.363 619.555C661.363 618.38 661.167 617.14 661.167 616.03V602.517C662.905 578.242 670.018 554.658 681.992 533.471C692.611 514.996 704.361 502.702 718.984 494.738C726.867 490.406 735.512 487.636 744.444 486.577C752.329 485.706 760.257 487.801 766.683 492.453C773.32 497.697 776.301 506.684 773.799 513.8C772.036 518.783 768.01 522.504 763.898 525.877C756.564 531.861 748.557 537.214 740.832 542.393C734.412 546.745 727.775 551.097 721.574 555.884C702.6 570.529 686.683 588.752 674.724 609.523C672.765 612.896 670.916 616.378 669.218 619.86L668.522 621.231C667.843 622.474 667.247 623.76 666.738 625.082C666.629 625.365 666.52 625.952 666.368 626.627C666.257 627.868 665.863 629.067 665.215 630.131C664.807 630.49 664.279 630.685 663.735 630.675ZM747.577 488.384C746.598 488.384 745.619 488.384 744.618 488.514C735.949 489.525 727.56 492.216 719.92 496.435C705.645 504.203 694.134 516.28 683.689 534.428C671.876 555.353 664.853 578.637 663.126 602.604V615.986C663.126 617.031 663.126 618.162 663.321 619.359C663.671 621.638 663.671 623.957 663.321 626.235C663.087 626.942 663.087 627.705 663.321 628.411C663.377 628.522 663.457 628.618 663.555 628.693C663.653 628.768 663.766 628.821 663.887 628.847C664.275 628.042 664.54 627.184 664.671 626.301C664.774 625.697 664.92 625.1 665.106 624.516C665.636 623.119 666.262 621.759 666.977 620.447L667.652 619.098C669.392 615.573 671.264 612.069 673.222 608.653C677.29 601.612 681.804 594.838 686.736 588.372C696.485 575.635 707.861 564.23 720.573 554.448C726.84 549.661 733.498 545.2 739.94 540.891C747.643 535.734 755.585 530.403 762.875 524.484C766.748 521.329 770.556 517.782 772.167 513.256C774.343 506.88 771.666 498.807 765.638 494.041C760.434 490.161 754.065 488.166 747.577 488.384Z" fill="#47389F"/>
<path d="M662.103 612.091H661.863C661.741 612.063 661.625 612.011 661.523 611.937C661.421 611.864 661.335 611.77 661.27 611.663C661.205 611.555 661.163 611.435 661.145 611.311C661.127 611.186 661.135 611.06 661.167 610.938C679.119 539.346 728.755 507.402 755.259 499.808C755.501 499.741 755.76 499.771 755.98 499.893C756.2 500.016 756.363 500.219 756.434 500.461C756.502 500.706 756.472 500.968 756.35 501.191C756.228 501.415 756.024 501.582 755.781 501.658C729.669 509.121 680.773 540.652 663.039 611.395C662.978 611.596 662.854 611.772 662.686 611.898C662.517 612.023 662.313 612.091 662.103 612.091Z" fill="#47389F"/>
<path d="M661.994 553.338C661.738 553.316 661.501 553.194 661.334 552.999C661.167 552.804 661.084 552.55 661.102 552.294C666.825 474.979 717.396 432.612 723.141 428.064C723.238 427.982 723.351 427.921 723.472 427.884C723.594 427.848 723.722 427.836 723.848 427.85C723.974 427.865 724.096 427.904 724.206 427.967C724.317 428.03 724.413 428.115 724.49 428.216C724.569 428.315 724.627 428.428 724.662 428.549C724.697 428.67 724.708 428.797 724.694 428.923C724.68 429.048 724.641 429.169 724.58 429.28C724.519 429.39 724.436 429.487 724.337 429.566C718.658 434.07 668.674 475.937 663.038 552.446C663.011 552.7 662.888 552.934 662.693 553.1C662.499 553.266 662.249 553.351 661.994 553.338Z" fill="#47389F"/>
<path d="M655.967 283.706L534.957 213.877C534.022 213.205 532.925 212.793 531.778 212.682C530.632 212.572 529.476 212.766 528.429 213.246L519.725 218.273C518.768 218.939 518.007 219.85 517.521 220.91C517.035 221.97 516.842 223.14 516.961 224.3V555.515C517.139 558.742 518.075 561.882 519.693 564.679C521.311 567.477 523.566 569.854 526.275 571.617L647.262 641.359C648.196 642.034 649.292 642.451 650.439 642.565C651.585 642.68 652.742 642.489 653.791 642.012L662.495 636.964C663.44 636.294 664.191 635.385 664.669 634.329C665.147 633.274 665.335 632.11 665.215 630.958V299.809C665.046 296.587 664.121 293.45 662.514 290.653C660.907 287.855 658.664 285.475 655.967 283.706Z" fill="#1A1B36"/>
<path d="M543.03 561.194L534.326 566.221V593.769C534.37 594.576 534.604 595.361 535.008 596.061C535.413 596.76 535.977 597.355 536.654 597.795L540.724 600.145C541.445 600.51 542.243 600.701 543.052 600.701C543.861 600.701 544.658 600.51 545.38 600.145L549.45 597.795C550.895 596.861 552.013 595.5 552.648 593.9L560.504 571.269L543.03 561.194Z" fill="#1A1B36"/>
<path d="M534.326 593.769C534.37 594.576 534.604 595.361 535.008 596.061C535.413 596.76 535.977 597.354 536.654 597.795L540.724 600.145C541.005 600.315 541.321 600.42 541.648 600.45C541.975 600.481 542.305 600.437 542.613 600.322C542.921 600.206 543.198 600.023 543.425 599.785C543.652 599.547 543.822 599.261 543.922 598.948L551.734 576.296L534.326 566.221V593.769Z" fill="#37474F"/>
<path d="M630.333 611.438L621.629 616.487V644.014C621.669 644.822 621.898 645.61 622.299 646.313C622.7 647.016 623.26 647.615 623.935 648.061L628.026 650.411C628.744 650.776 629.538 650.966 630.344 650.966C631.149 650.966 631.943 650.776 632.661 650.411L636.752 648.061C638.198 647.127 639.316 645.766 639.951 644.166L647.785 621.513L630.333 611.438Z" fill="#1A1B36"/>
<path d="M621.629 644.014C621.669 644.822 621.898 645.61 622.299 646.313C622.7 647.016 623.26 647.615 623.935 648.061L628.026 650.411C628.307 650.581 628.623 650.686 628.951 650.716C629.278 650.747 629.608 650.703 629.915 650.588C630.223 650.473 630.501 650.289 630.728 650.051C630.955 649.813 631.125 649.527 631.225 649.214L639.081 626.562L621.672 616.487L621.629 644.014Z" fill="#37474F"/>
<path d="M526.841 219.165L647.828 288.798C650.537 290.566 652.792 292.947 654.41 295.748C656.028 298.55 656.964 301.692 657.141 304.923V636.137C657.372 637.3 657.232 638.506 656.742 639.586C656.252 640.666 655.436 641.565 654.409 642.158C653.382 642.751 652.195 643.007 651.015 642.891C649.834 642.775 648.72 642.293 647.828 641.512L526.841 571.748C524.135 569.983 521.883 567.606 520.269 564.808C518.654 562.01 517.722 558.871 517.549 555.645V224.518C517.316 223.357 517.454 222.152 517.942 221.073C518.431 219.994 519.246 219.095 520.272 218.504C521.298 217.913 522.484 217.659 523.663 217.777C524.841 217.896 525.953 218.381 526.841 219.165Z" fill="#37474F"/>
<path d="M351.147 671.889L482.014 747.441L665.236 641.664L656.51 636.615L525.644 561.063L351.147 661.814V671.889Z" fill="#455A64"/>
<path d="M482.014 747.441V737.366L665.237 631.589V641.664L482.014 747.441Z" fill="#1A1B36"/>
<path d="M482.841 732.775L481.514 731.882C504.732 696.739 504.58 636.028 502.687 620.796C502.534 619.773 502.425 619.142 502.404 618.903L503.992 618.642C503.992 619.12 504.166 619.686 504.253 620.361C505.951 631.132 515.547 689.646 526.906 707.402L525.557 708.272C516.57 694.324 508.888 656.679 505.037 634.962C505.276 659.616 501.686 704.421 482.841 732.775Z" fill="#FAFAFA"/>
<path d="M559.263 679.113C557.283 678.526 511.021 664.512 506.756 644.101L508.344 643.775C512.392 663.25 559.242 677.438 559.72 677.59L559.263 679.113Z" fill="#FAFAFA"/>
<path d="M512.566 670.845L511.391 665.862C511.23 664.946 510.764 664.112 510.068 663.496C509.373 662.88 508.489 662.517 507.561 662.467C506.795 662.355 506.013 662.481 505.32 662.827C504.628 663.173 504.058 663.724 503.688 664.404L502.186 663.773C502.69 662.777 503.49 661.962 504.476 661.44C505.462 660.918 506.585 660.714 507.692 660.857C508.492 660.907 509.273 661.127 509.982 661.502C510.691 661.878 511.312 662.399 511.804 663.033C512.065 660.97 513.119 659.089 514.742 657.789C515.357 657.467 516.045 657.31 516.739 657.333C517.433 657.356 518.109 657.558 518.702 657.919L517.984 659.355C517.621 659.122 517.205 658.985 516.775 658.959C516.344 658.932 515.914 659.016 515.525 659.203C513.676 660.247 512.958 664.273 512.849 665.731L512.566 670.845Z" fill="#FAFAFA"/>
<path d="M517.114 687.447L515.678 682.921C514.046 677.808 511.326 674.87 508.105 674.674C506.759 674.648 505.436 675.015 504.295 675.73C503.155 676.445 502.248 677.477 501.686 678.7L500.228 678.003C500.916 676.476 502.043 675.187 503.464 674.299C504.886 673.412 506.539 672.967 508.214 673.02C510.15 673.129 513.48 674.174 515.961 679.222C516.505 675.24 518.137 668.842 522.336 666.166C523.844 665.34 525.539 664.916 527.258 664.935C528.976 664.954 530.661 665.415 532.15 666.275L531.476 667.733C530.229 666.995 528.814 666.59 527.367 666.556C525.919 666.522 524.487 666.859 523.207 667.537C517.614 671.018 517.244 682.53 517.244 682.66L517.114 687.447Z" fill="#FAFAFA"/>
<path d="M497.464 698.502L496.028 697.762C499.248 691.56 506.32 687.1 512.457 687.404C513.759 687.419 515.041 687.726 516.208 688.303C517.375 688.879 518.399 689.709 519.203 690.734C519.793 687.602 521.012 684.623 522.784 681.976C524.557 679.328 526.847 677.066 529.517 675.327C532.382 673.424 535.688 672.29 539.118 672.035C542.548 671.78 545.986 672.411 549.101 673.869L548.47 675.327C545.601 673.999 542.44 673.425 539.286 673.661C536.133 673.898 533.092 674.935 530.453 676.676C527.63 678.505 525.275 680.969 523.575 683.871C521.874 686.773 520.877 690.032 520.661 693.388V697.501L519.137 693.671C518.633 692.31 517.725 691.135 516.535 690.303C515.346 689.471 513.93 689.021 512.479 689.014C506.843 688.732 500.423 692.822 497.464 698.502Z" fill="#FAFAFA"/>
<path d="M488.629 722.525L487.215 721.742C489.173 718.173 499.596 700.243 511.935 697C513.676 696.501 515.503 696.377 517.296 696.636C519.089 696.895 520.807 697.531 522.336 698.502L521.509 699.873C520.161 699.021 518.648 698.462 517.07 698.233C515.492 698.005 513.883 698.111 512.348 698.545C503.296 700.939 493.939 712.951 488.629 722.525Z" fill="#FAFAFA"/>
<path d="M647.785 530.838V540.913L482.014 636.615L351.147 561.063V550.988L516.918 455.286L647.785 530.838Z" fill="#1A1B36"/>
<path d="M647.785 530.838L482.014 626.54L351.147 550.988L516.918 455.286L647.785 530.838Z" fill="#455A64"/>
<path d="M647.785 420.035V430.088L482.014 525.812L351.147 450.238V440.185L516.918 344.461L647.785 420.035Z" fill="#1A1B36"/>
<path d="M647.785 420.035L482.014 515.737L351.147 440.185L516.918 344.461L647.785 420.035Z" fill="#455A64"/>
<path d="M481.448 384.326L360.461 314.584C359.527 313.909 358.431 313.493 357.285 313.378C356.138 313.263 354.982 313.454 353.933 313.931C352.366 314.823 346.795 318.066 345.229 318.958C344.276 319.627 343.519 320.538 343.037 321.598C342.555 322.658 342.365 323.827 342.487 324.985V656.113C342.665 659.34 343.601 662.479 345.219 665.277C346.837 668.075 349.092 670.452 351.8 672.215L472.788 741.979C473.722 742.654 474.817 743.07 475.964 743.185C477.111 743.3 478.267 743.109 479.316 742.632C480.883 741.718 486.497 738.497 488.02 737.562C488.978 736.9 489.741 735.994 490.231 734.938C490.72 733.882 490.919 732.714 490.805 731.556V400.45C490.626 397.216 489.685 394.069 488.059 391.267C486.433 388.465 484.168 386.086 481.448 384.326Z" fill="#1A1B36"/>
<path opacity="0.2" d="M482.014 435.158L490.762 430.11V399.863L481.993 404.911L482.014 435.158Z" fill="black"/>
<path opacity="0.2" d="M656.532 334.408L665.28 329.381V299.134L656.51 304.183L656.532 334.408Z" fill="black"/>
<path d="M368.599 661.814L359.895 666.841V694.389C359.939 695.196 360.173 695.981 360.577 696.681C360.982 697.38 361.546 697.974 362.223 698.415L366.293 700.765C367.014 701.13 367.812 701.32 368.621 701.32C369.43 701.32 370.227 701.13 370.949 700.765L375.018 698.415C376.459 697.485 377.576 696.132 378.217 694.542L386.073 671.889L368.599 661.814Z" fill="#1A1B36"/>
<path d="M359.873 694.389C359.917 695.196 360.151 695.981 360.556 696.681C360.96 697.38 361.524 697.975 362.202 698.415L366.271 700.765C366.552 700.935 366.868 701.04 367.195 701.07C367.523 701.101 367.852 701.057 368.16 700.942C368.468 700.826 368.746 700.643 368.973 700.405C369.199 700.167 369.369 699.881 369.47 699.568L377.325 676.916L359.917 666.841L359.873 694.389Z" fill="#37474F"/>
<path d="M455.837 712.189L447.132 717.216V744.764C447.172 745.57 447.402 746.354 447.803 747.054C448.204 747.754 448.764 748.348 449.439 748.79L453.53 751.14C454.248 751.505 455.042 751.696 455.847 751.696C456.653 751.696 457.447 751.505 458.165 751.14L462.256 748.79C463.69 747.853 464.806 746.503 465.455 744.917L473.288 722.264L455.837 712.189Z" fill="#1A1B36"/>
<path d="M447.132 744.656C447.172 745.461 447.402 746.245 447.803 746.945C448.204 747.645 448.764 748.24 449.439 748.681L453.53 751.031C453.811 751.201 454.127 751.306 454.454 751.336C454.782 751.367 455.112 751.323 455.419 751.208C455.727 751.093 456.005 750.909 456.232 750.671C456.458 750.434 456.628 750.147 456.729 749.834L464.563 727.182L447.154 717.107L447.132 744.656Z" fill="#37474F"/>
<path d="M351.713 319.633L472.723 389.374C475.429 391.144 477.68 393.525 479.294 396.327C480.909 399.128 481.841 402.27 482.014 405.499V747.441C482.014 747.441 475.29 743.459 472.723 741.979L351.735 672.215C349.026 670.452 346.772 668.075 345.153 665.277C343.535 662.48 342.599 659.34 342.422 656.113V324.986C342.189 323.824 342.326 322.619 342.815 321.54C343.304 320.461 344.118 319.563 345.145 318.972C346.171 318.38 347.357 318.126 348.535 318.245C349.714 318.363 350.825 318.849 351.713 319.633Z" fill="#37474F"/>
<path opacity="0.2" d="M472.723 389.374L351.713 319.633C350.825 318.849 349.714 318.363 348.535 318.245C347.357 318.126 346.171 318.38 345.145 318.972C344.118 319.563 343.304 320.461 342.815 321.54C342.326 322.619 342.189 323.824 342.422 324.986V354.558L482.014 435.071V405.499C481.841 402.27 480.909 399.128 479.294 396.327C477.68 393.525 475.429 391.144 472.723 389.374Z" fill="black"/>
<path d="M639.059 420.84C638.847 420.834 638.645 420.748 638.495 420.598C638.346 420.448 638.259 420.247 638.254 420.035V320.677L543.487 375.383C543.398 375.44 543.299 375.479 543.194 375.495C543.09 375.512 542.983 375.507 542.881 375.481C542.779 375.454 542.683 375.407 542.6 375.341C542.517 375.275 542.449 375.193 542.399 375.1C542.344 375.008 542.308 374.907 542.293 374.802C542.277 374.696 542.283 374.589 542.309 374.486C542.335 374.382 542.382 374.285 542.446 374.2C542.51 374.115 542.59 374.044 542.682 373.99L638.776 318.588C638.897 318.513 639.036 318.473 639.178 318.473C639.321 318.473 639.46 318.513 639.581 318.588C639.701 318.66 639.801 318.762 639.869 318.884C639.938 319.006 639.974 319.144 639.973 319.284V420.035C639.974 420.15 639.95 420.265 639.903 420.37C639.856 420.476 639.786 420.57 639.7 420.646C639.613 420.723 639.511 420.779 639.4 420.813C639.29 420.846 639.173 420.855 639.059 420.84Z" fill="#FAFAFA"/>
<path d="M621.607 395.641H621.368C621.16 395.595 620.98 395.468 620.865 395.288C620.751 395.109 620.713 394.892 620.758 394.684L636.991 324.376L604.786 380.148C604.736 380.241 604.668 380.323 604.586 380.389C604.503 380.455 604.409 380.504 604.307 380.532C604.205 380.561 604.099 380.568 603.994 380.555C603.89 380.541 603.789 380.506 603.698 380.453C603.604 380.401 603.522 380.33 603.456 380.246C603.39 380.162 603.341 380.065 603.312 379.962C603.284 379.858 603.277 379.75 603.291 379.644C603.304 379.538 603.339 379.435 603.393 379.343L638.21 318.893C638.31 318.727 638.464 318.601 638.647 318.537C638.83 318.473 639.03 318.476 639.211 318.544C639.39 318.617 639.536 318.752 639.624 318.923C639.712 319.095 639.735 319.293 639.69 319.48L622.281 395.054C622.242 395.209 622.157 395.348 622.036 395.453C621.916 395.558 621.766 395.624 621.607 395.641Z" fill="#FAFAFA"/>
<path d="M586.725 370.552C586.614 370.552 586.504 370.529 586.403 370.484C586.302 370.439 586.211 370.373 586.137 370.291C585.989 370.14 585.905 369.937 585.905 369.725C585.905 369.513 585.989 369.31 586.137 369.159L638.493 318.784C638.644 318.635 638.847 318.552 639.059 318.552C639.27 318.552 639.474 318.635 639.624 318.784C639.775 318.938 639.859 319.145 639.859 319.36C639.859 319.576 639.775 319.783 639.624 319.937L587.269 370.291C587.2 370.368 587.116 370.431 587.023 370.476C586.93 370.52 586.828 370.546 586.725 370.552Z" fill="#FAFAFA"/>
<path d="M639.059 404.759C638.847 404.754 638.645 404.667 638.495 404.517C638.346 404.367 638.259 404.166 638.254 403.954C638.254 390.767 623.544 389.875 622.912 389.853C622.794 389.845 622.678 389.811 622.573 389.755C622.468 389.699 622.376 389.621 622.303 389.527C622.235 389.434 622.188 389.328 622.165 389.215C622.143 389.102 622.145 388.986 622.173 388.874C622.709 386.18 622.527 383.392 621.645 380.791C620.763 378.19 619.211 375.867 617.146 374.055C616.391 373.302 615.484 372.719 614.486 372.344C613.488 371.968 612.422 371.81 611.358 371.879C610.79 371.975 610.25 372.192 609.773 372.515C609.296 372.838 608.894 373.259 608.594 373.751C608.503 373.909 608.361 374.032 608.191 374.1C608.021 374.167 607.833 374.174 607.659 374.12C607.485 374.067 607.334 373.956 607.231 373.806C607.129 373.656 607.08 373.475 607.093 373.294C607.093 372.793 607.985 361.064 597.67 359.911C597.538 359.895 597.411 359.847 597.302 359.771C597.192 359.695 597.102 359.594 597.039 359.476C596.98 359.361 596.949 359.235 596.949 359.106C596.949 358.977 596.98 358.85 597.039 358.736C597.039 358.736 601.609 350.184 599.847 345.984C599.643 345.491 599.326 345.053 598.922 344.705C598.517 344.357 598.036 344.11 597.518 343.982C597.415 343.955 597.319 343.907 597.235 343.841C597.151 343.775 597.081 343.693 597.03 343.599C596.979 343.505 596.948 343.402 596.939 343.296C596.929 343.19 596.941 343.083 596.974 342.981C597.039 342.78 597.18 342.611 597.366 342.51C597.552 342.408 597.77 342.382 597.975 342.437C598.725 342.63 599.419 342.997 600.001 343.507C600.583 344.017 601.037 344.657 601.326 345.375C603.002 349.357 600.173 355.951 598.954 358.431C606.962 359.976 608.442 367.527 608.659 371.27C609.375 370.762 610.191 370.413 611.053 370.247C612.361 370.12 613.681 370.292 614.913 370.748C616.145 371.204 617.258 371.933 618.169 372.88C620.331 374.787 621.986 377.201 622.985 379.905C623.984 382.609 624.295 385.519 623.892 388.374C627.417 388.83 639.864 391.289 639.842 403.997C639.831 404.2 639.744 404.39 639.599 404.531C639.454 404.673 639.261 404.754 639.059 404.759Z" fill="#FAFAFA"/>
<path d="M639.059 383.042C638.856 383.043 638.66 382.967 638.511 382.83C638.362 382.693 638.27 382.504 638.253 382.302C637.905 377.689 635.229 371.727 631.856 370.247C631.188 369.949 630.447 369.851 629.724 369.967C629.001 370.083 628.328 370.407 627.787 370.9C627.654 370.985 627.499 371.031 627.341 371.031C627.182 371.031 627.028 370.985 626.895 370.9C626.757 370.824 626.644 370.71 626.57 370.57C626.497 370.431 626.466 370.273 626.481 370.117C626.481 370.117 627.199 361.957 623.522 358.584C622.724 357.918 621.778 357.451 620.764 357.224C619.75 356.997 618.696 357.016 617.69 357.278C617.551 357.308 617.407 357.299 617.273 357.253C617.139 357.207 617.02 357.125 616.928 357.017C616.835 356.908 616.772 356.776 616.745 356.635C616.719 356.493 616.729 356.348 616.776 356.212C617.516 354.188 618.952 348.509 617.015 346.485C616.101 345.549 614.426 345.462 612.01 346.246C611.846 346.3 611.668 346.3 611.503 346.245C611.338 346.19 611.196 346.083 611.097 345.941C610.997 345.801 610.944 345.634 610.944 345.462C610.944 345.291 610.997 345.123 611.097 344.983C612.446 343.286 615.775 338.325 614.948 335.953C614.812 335.625 614.591 335.34 614.308 335.126C614.025 334.912 613.69 334.777 613.338 334.734C613.235 334.709 613.138 334.663 613.052 334.6C612.967 334.537 612.895 334.458 612.84 334.367C612.786 334.276 612.75 334.175 612.734 334.07C612.719 333.965 612.724 333.858 612.75 333.755C612.77 333.651 612.812 333.553 612.872 333.466C612.932 333.379 613.01 333.306 613.1 333.251C613.19 333.195 613.29 333.159 613.395 333.145C613.5 333.131 613.606 333.139 613.708 333.168C614.319 333.257 614.895 333.504 615.38 333.886C615.865 334.268 616.242 334.771 616.471 335.344C617.364 337.933 615.187 341.872 613.664 344.048C614.449 343.861 615.267 343.869 616.048 344.07C616.829 344.271 617.55 344.659 618.147 345.201C620.54 347.682 619.387 352.926 618.669 355.385C619.73 355.258 620.806 355.357 621.827 355.676C622.847 355.995 623.788 356.526 624.588 357.235C627.83 360.194 628.178 365.939 628.135 368.572C628.816 368.252 629.559 368.086 630.311 368.086C631.063 368.086 631.806 368.252 632.487 368.572C636.6 370.378 639.45 376.797 639.864 381.998C639.873 382.102 639.86 382.208 639.828 382.308C639.795 382.408 639.743 382.5 639.674 382.579C639.605 382.658 639.52 382.723 639.426 382.769C639.331 382.815 639.229 382.841 639.124 382.846L639.059 383.042Z" fill="#FAFAFA"/>
<path d="M685.931 284.032C685.828 282.877 685.418 281.77 684.745 280.825C684.072 279.881 683.16 279.132 682.101 278.658L552.388 203.759C549.504 202.3 546.317 201.539 543.085 201.539C539.853 201.539 536.667 202.3 533.783 203.759L334.284 318.958C333.225 319.433 332.313 320.181 331.64 321.126C330.967 322.07 330.557 323.177 330.454 324.333V334.408C330.557 335.563 330.967 336.67 331.64 337.615C332.313 338.559 333.225 339.308 334.284 339.782L463.997 414.66C466.878 416.129 470.066 416.895 473.3 416.895C476.534 416.895 479.721 416.129 482.602 414.66L682.101 299.482C683.16 299.007 684.072 298.259 684.745 297.315C685.418 296.37 685.828 295.263 685.931 294.107V284.032Z" fill="#37474F"/>
<path d="M463.997 404.585L334.284 329.707C329.148 326.726 329.148 321.917 334.284 318.958L533.783 203.759C536.666 202.3 539.853 201.539 543.085 201.539C546.317 201.539 549.504 202.3 552.388 203.759L682.101 278.658C687.258 281.639 687.258 286.426 682.101 289.407L482.602 404.585C479.721 406.054 476.533 406.82 473.3 406.82C470.066 406.82 466.878 406.054 463.997 404.585Z" fill="#455A64"/>
<path opacity="0.1" d="M656.51 314.236L595.451 389.81L490.762 450.26L490.74 409.96L656.51 314.236Z" fill="black"/>
<path opacity="0.1" d="M647.785 430.088L595.451 500.613L490.762 561.085V520.763L647.785 430.088Z" fill="black"/>
<path opacity="0.1" d="M647.785 540.913L595.451 611.439L490.762 671.911V631.589L647.785 540.913Z" fill="black"/>
<path d="M407.636 761.02L247.132 853.697L66.3901 749.095L226.894 656.439L407.636 761.02Z" fill="#47389F"/>
<path opacity="0.5" d="M407.636 761.02L247.132 853.697L66.3901 749.095L226.894 656.439L407.636 761.02Z" fill="black"/>
<path d="M226.894 530.817V656.439L66.3901 749.095V623.494L226.894 530.817Z" fill="#47389F"/>
<path opacity="0.23" d="M226.894 530.817V656.439L66.3901 749.095V623.494L226.894 530.817Z" fill="black"/>
<path d="M247.132 728.075V853.697L66.3901 749.095V623.494L247.132 728.075Z" fill="#47389F"/>
<path opacity="0.38" d="M247.132 728.075V853.697L66.3901 749.095V623.494L247.132 728.075Z" fill="black"/>
<path d="M407.636 635.397V761.02L226.894 656.439V530.817L407.636 635.397Z" fill="#47389F"/>
<path opacity="0.4" d="M407.636 635.397V761.02L226.894 656.439V530.817L407.636 635.397Z" fill="black"/>
<path d="M407.636 761.02V635.397L247.131 728.075V853.697L407.636 761.02Z" fill="#47389F"/>
<path opacity="0.23" d="M407.636 761.02V635.397L247.131 728.075V853.697L407.636 761.02Z" fill="black"/>
<path d="M226.894 530.817L227.112 461.271L407.418 565.982L407.636 635.397L226.894 530.817Z" fill="#47389F"/>
<path opacity="0.2" d="M226.894 530.817L227.112 461.271L407.418 565.982L407.636 635.397L226.894 530.817Z" fill="black"/>
<path d="M247.131 728.075L262.19 667.233L421.236 575.404L407.636 635.397L247.131 728.075Z" fill="#47389F"/>
<path opacity="0.3" d="M247.131 728.075L262.19 667.233L421.236 575.404L407.636 635.397L247.131 728.075Z" fill="black"/>
<path d="M66.3901 623.494L47.241 560.389L207.745 467.734L226.894 530.817L66.3901 623.494Z" fill="#47389F"/>
<path opacity="0.1" d="M66.3901 623.494L47.241 560.389L207.745 467.734L226.894 530.817L66.3901 623.494Z" fill="black"/>
<path d="M66.3901 623.495L28.6141 571.335L209.377 675.915L247.132 728.075L66.3901 623.495Z" fill="#47389F"/>
<path opacity="0.45" d="M66.3901 623.495L28.6141 571.335L209.377 675.915L247.132 728.075L66.3901 623.495Z" fill="black"/>
<g opacity="0.7">
<path d="M294.394 816.335C294.133 816.335 293.881 816.232 293.694 816.049C293.507 815.866 293.399 815.617 293.393 815.355V793.247C293.399 792.983 293.506 792.732 293.693 792.545C293.879 792.359 294.131 792.251 294.394 792.246C294.656 792.252 294.905 792.36 295.088 792.547C295.271 792.734 295.374 792.985 295.374 793.247V815.355C295.374 815.615 295.27 815.864 295.087 816.048C294.903 816.231 294.654 816.335 294.394 816.335Z" fill="white"/>
<path d="M291.5 800.906C291.371 800.926 291.238 800.926 291.109 800.906C290.871 800.797 290.685 800.6 290.588 800.357C290.49 800.114 290.49 799.844 290.586 799.601L294.112 791.484L298.028 796.01C298.169 796.213 298.229 796.46 298.198 796.704C298.168 796.949 298.048 797.173 297.862 797.335C297.676 797.496 297.437 797.584 297.191 797.58C296.945 797.577 296.708 797.483 296.527 797.316L294.677 795.14L292.501 800.362C292.407 800.542 292.262 800.689 292.084 800.786C291.905 800.883 291.702 800.925 291.5 800.906Z" fill="white"/>
<path d="M303.512 811.134C303.25 811.128 303.001 811.02 302.818 810.833C302.635 810.646 302.533 810.394 302.533 810.133V788.046C302.533 787.786 302.636 787.537 302.82 787.353C303.003 787.17 303.252 787.067 303.512 787.067C303.772 787.067 304.021 787.17 304.204 787.353C304.388 787.537 304.491 787.786 304.491 788.046V810.111C304.494 810.242 304.471 810.373 304.423 810.496C304.376 810.618 304.304 810.73 304.213 810.825C304.122 810.92 304.014 810.996 303.893 811.049C303.773 811.102 303.643 811.131 303.512 811.134Z" fill="white"/>
<path d="M300.618 795.706C300.488 795.726 300.356 795.726 300.226 795.706C300.107 795.654 299.999 795.579 299.909 795.485C299.819 795.39 299.749 795.279 299.702 795.158C299.655 795.036 299.633 794.907 299.638 794.776C299.642 794.646 299.672 794.518 299.726 794.4L303.229 786.175L307.146 790.679C307.327 790.866 307.428 791.115 307.428 791.375C307.428 791.635 307.327 791.885 307.146 792.072C307.055 792.164 306.947 792.237 306.827 792.287C306.708 792.337 306.579 792.362 306.45 792.362C306.32 792.362 306.192 792.337 306.073 792.287C305.953 792.237 305.845 792.164 305.753 792.072L303.904 789.896L301.728 795.118C301.638 795.328 301.478 795.501 301.277 795.608C301.075 795.714 300.842 795.749 300.618 795.706Z" fill="white"/>
</g>
<g opacity="0.7">
<path d="M268.086 831.327C267.715 831.333 267.347 831.243 267.02 831.066C266.627 830.814 266.308 830.461 266.098 830.044C265.887 829.627 265.792 829.161 265.823 828.694V825.974C265.829 825.713 265.937 825.463 266.124 825.28C266.311 825.097 266.563 824.995 266.824 824.995C267.084 824.995 267.333 825.098 267.517 825.282C267.7 825.465 267.804 825.714 267.804 825.974V828.694C267.804 829.086 267.804 829.304 267.999 829.347C268.195 829.391 268.304 829.347 268.63 829.173C269.243 828.607 269.725 827.916 270.045 827.145C270.364 826.375 270.513 825.545 270.48 824.712V813.397C270.48 813.137 270.583 812.888 270.767 812.704C270.951 812.521 271.2 812.417 271.459 812.417C271.719 812.417 271.968 812.521 272.152 812.704C272.335 812.888 272.439 813.137 272.439 813.397V824.712C272.487 825.887 272.258 827.057 271.771 828.127C271.283 829.196 270.55 830.136 269.631 830.87C269.166 831.158 268.633 831.315 268.086 831.327Z" fill="white"/>
<path d="M257.707 822.21V820.512C257.965 816.154 259.239 811.917 261.427 808.139C263.615 804.361 266.655 801.146 270.306 798.752C273.875 796.707 277.269 796.402 279.881 797.925C281.273 798.88 282.384 800.192 283.096 801.723C283.808 803.254 284.095 804.949 283.928 806.629V807.195L257.707 822.21ZM276.225 798.839C274.482 798.919 272.79 799.444 271.307 800.362C268.179 802.421 265.529 805.128 263.54 808.301C261.55 811.474 260.265 815.037 259.774 818.75L281.904 805.955C281.999 804.694 281.766 803.431 281.228 802.287C280.691 801.144 279.867 800.158 278.836 799.427C278.032 799.005 277.132 798.803 276.225 798.839Z" fill="white"/>
</g>
<path opacity="0.7" d="M28.6141 571.335L209.377 675.915L247.132 728.075L207.375 677.765L28.6141 571.335Z" fill="white"/>
<path opacity="0.7" d="M407.636 635.397L247.131 728.075V853.697L250.134 730.599L407.636 635.397Z" fill="white"/>
<path d="M172.102 585.152C188.662 582.758 203.785 572.096 213.447 558.691C217.953 552.428 221.271 545.392 223.239 537.932C225.329 530.956 225.672 523.573 224.24 516.433C221.259 504.486 210.205 497.414 198.519 495.935C192.59 495.154 186.56 495.743 180.893 497.654C175.017 499.67 169.919 503.475 166.314 508.534C164.053 511.229 162.631 514.527 162.223 518.021C162.188 519.39 162.671 520.721 163.574 521.75C164.478 522.778 165.736 523.428 167.097 523.57C170.601 523.865 174.103 522.977 177.042 521.046C180.626 519.036 183.782 516.346 186.333 513.125C191.807 506.37 195.903 498.608 198.389 490.277C200.133 483.128 200.133 475.665 198.389 468.517C197.063 461.039 193.646 454.09 188.531 448.475C182.668 443.143 175.228 439.866 167.337 439.14C159.483 438.061 151.486 438.806 143.966 441.316C140.663 442.318 137.603 443.992 134.979 446.234C133.108 447.975 130.975 450.847 131.737 453.676C132.498 456.505 136.633 457.767 139.44 457.397C143.594 456.618 147.4 454.556 150.32 451.5C153.575 448.296 156.339 444.63 158.524 440.62C160.147 437.738 160.994 434.484 160.983 431.176C160.7 417.38 145.446 408.458 133.499 405.934C130.274 405.26 126.971 405.04 123.685 405.281C122.576 405.281 123.25 407.109 124.142 407.044C130.571 406.751 136.96 408.195 142.639 411.222C148.241 413.797 152.947 417.987 156.152 423.255C157.58 425.852 158.285 428.785 158.193 431.748C158.101 434.71 157.216 437.594 155.63 440.098C153.499 443.809 150.846 447.194 147.752 450.151C145.163 452.501 141.224 455.221 137.59 454.96C136.99 454.958 136.403 454.788 135.895 454.469C135.387 454.15 134.979 453.694 134.718 453.154C134.608 452.439 134.667 451.709 134.89 451.021C135.113 450.334 135.494 449.708 136.002 449.193C137.923 447.124 140.3 445.53 142.943 444.537C149.472 441.823 156.54 440.661 163.594 441.142C170.863 441.274 177.932 443.544 183.918 447.67C189.133 452 192.836 457.875 194.494 464.447C196.593 471.124 197.246 478.171 196.409 485.12C195.116 492.112 192.43 498.772 188.51 504.704C184.484 511.363 179.435 517.76 171.863 520.371C169.991 521.046 166.075 522.025 165.335 519.305C164.595 516.585 166.727 513.234 168.098 511.123C171.13 506.352 175.549 502.624 180.763 500.439C185.794 498.423 191.224 497.603 196.626 498.045C206.875 498.807 217.277 504.16 220.845 514.344C222.636 520.43 222.83 526.874 221.411 533.058C220.131 539.835 217.695 546.342 214.208 552.294C206.71 564.939 195.353 574.847 181.807 580.561C178.587 581.953 175.279 583.128 171.906 584.216C171.558 584.347 171.711 585.217 172.102 585.152Z" fill="#E0E0E0"/>
<path d="M102.926 396.229C94.222 395.598 82.2321 402.452 86.4971 407.457C90.7621 412.462 102.077 404.367 102.077 404.367C102.077 404.367 101.011 414.486 104.71 415.639C108.41 416.792 113.415 407.131 109.715 400.951C111.499 401.654 113.432 401.895 115.334 401.652C117.236 401.408 119.046 400.688 120.596 399.558C125.862 395.685 120.291 392.029 112.871 392.682C112.871 392.682 118.18 375.274 107.452 378.603C102.077 380.235 100.184 386.524 102.926 396.229Z" fill="#47389F"/>
<path opacity="0.65" d="M102.926 396.229C94.222 395.598 82.2321 402.452 86.4971 407.457C90.7621 412.462 102.077 404.367 102.077 404.367C102.077 404.367 101.011 414.486 104.71 415.639C108.41 416.792 113.415 407.131 109.715 400.951C111.499 401.654 113.432 401.895 115.334 401.652C117.236 401.408 119.046 400.688 120.596 399.558C125.862 395.685 120.291 392.029 112.871 392.682C112.871 392.682 118.18 375.274 107.452 378.603C102.077 380.235 100.184 386.524 102.926 396.229Z" fill="white"/>
<path d="M111.021 399.928C110.539 399.456 110.031 399.013 109.498 398.601C108.736 398.013 107.931 397.447 107.169 396.882C106.428 396.342 105.65 395.855 104.841 395.424C104.375 395.165 103.896 394.933 103.405 394.727C102.727 394.409 101.972 394.288 101.229 394.379C101.034 394.385 100.844 394.442 100.679 394.546C100.514 394.65 100.38 394.797 100.291 394.97C100.202 395.144 100.162 395.338 100.174 395.532C100.185 395.727 100.249 395.915 100.358 396.076C100.957 396.724 101.703 397.217 102.534 397.513L103.71 398.144C104.515 398.622 105.233 399.166 105.886 399.71C106.538 400.254 107.409 400.777 108.062 401.321C109.184 402.231 110.439 402.965 111.783 403.497C111.843 403.529 111.91 403.546 111.978 403.546C112.047 403.546 112.114 403.529 112.174 403.497C113.284 402.626 111.652 400.559 111.021 399.928Z" fill="#455A64"/>
<path d="M804.763 156.844C795.253 169.639 782.524 239.99 777.715 262.555C754.583 261.881 723.64 260.793 711.933 259.574C698.877 258.203 671.002 255.527 657.314 257.398C623.347 261.75 624.674 284.076 625.501 289.908C626.393 296.567 631.159 299.613 649.437 295.457C653.527 294.558 657.697 294.07 661.884 293.999C663.647 293.999 667.368 293.107 668.76 294.608C670.936 296.784 664.648 300.44 663.081 301.441C660.666 303.008 658.141 304.988 657.641 307.817C657.497 308.334 657.505 308.882 657.663 309.394C657.821 309.907 658.123 310.364 658.533 310.711C659.419 311.073 660.411 311.073 661.297 310.711C669.64 308.731 677.687 305.666 685.233 301.593C688.078 299.878 691.071 298.422 694.177 297.241C698.899 295.718 703.773 296.61 708.517 296.61C718.722 296.61 772.666 301.963 796.646 304.4C813.249 306.076 815.012 289.69 820.735 273.087C827.763 252.502 844.41 144.244 844.41 144.244C827.611 141.807 816.078 141.655 804.763 156.844Z" fill="#FFC7C7"/>
<path d="M844.671 142.547C836.641 141.067 818.559 138.826 808.723 149.815C798.887 160.804 796.559 172.337 792.229 188.983C787.898 205.63 780.217 235.442 780.217 235.442C780.217 235.442 792.903 253.655 832.616 248.498L844.671 142.547Z" fill="#37474F"/>
<path d="M944.399 717.934L916.48 717.956L908.451 657.353L943.681 655.96L944.399 717.934Z" fill="#FFC7C7"/>
<path d="M851.7 687.665C846.956 695.912 831.702 695.238 819.059 692.322L817.601 632.742L854.92 631.262L851.7 687.665Z" fill="#FFC7C7"/>
<path d="M942.506 334.995C943.506 360.781 940.09 513.256 940.09 513.256C941.026 520.655 948.685 533.558 950.274 560.258C952.602 599.035 944.703 681.725 944.703 681.725C944.703 681.725 928.709 690.081 911.475 683.683C911.475 683.683 893.936 564.001 887.539 525.746C882.012 492.453 874.918 403.149 874.918 403.149L861.144 517.608C863.669 531.156 864.712 544.939 864.255 558.713C863.69 576.513 853.549 662.945 853.549 662.945C841.981 666.73 829.554 667.025 817.819 663.794C817.819 663.794 809.506 529.663 808.549 513.408C807.461 494.869 808.201 331.209 808.201 331.209L942.506 334.995Z" fill="#47389F"/>
<path opacity="0.2" d="M874.961 403.192C874.961 403.192 850.568 396.273 833.943 381.432C833.943 381.432 841.733 394.728 863.798 406.522L862.536 506.424L874.961 403.192Z" fill="black"/>
<path d="M884.667 768.483C883.774 769.397 884.297 775.425 885.385 776.992C886.473 778.558 893.131 783.868 904.686 784.26C915.719 784.608 925.467 782.736 931.756 778.384C938.045 774.032 941.004 769.397 941.374 763.152C941.744 756.907 940.808 750.836 943.55 745.896C946.14 741.348 950.339 736.148 951.188 733.689C953.081 728.357 950.775 720.937 950.775 720.937L884.667 768.483Z" fill="#1A1B36"/>
<path d="M912.52 712.624C912.534 715.004 912.197 717.372 911.519 719.653C909.157 727.074 905.608 734.063 901.009 740.347C897.832 744.416 893.828 747.833 890.455 751.771C886.846 755.506 884.633 760.371 884.188 765.546C884.057 774.25 893.545 776.752 900.791 777.753C908.646 778.789 916.633 778.046 924.162 775.577C928.127 774.382 931.662 772.066 934.342 768.908C937.021 765.75 938.73 761.884 939.263 757.777C939.568 755.362 939.263 752.925 939.524 750.509C940.262 744.962 942.363 739.683 945.639 735.146C947.535 732.521 949.154 729.706 950.47 726.747C952.494 721.307 950.47 715.366 948.816 710.122C947.402 705.574 945.791 700.417 944.203 700.917C944.203 703.333 944.203 703.55 942.658 705.269C940.482 707.445 940.591 710.47 938.306 712.363C938.966 710.355 939.418 708.284 939.655 706.183C939.762 705.326 939.553 704.46 939.067 703.746C938.281 703.108 937.358 702.661 936.369 702.441C932.928 701.423 929.391 700.76 925.815 700.46C922.411 700.013 918.957 700.123 915.588 700.787C914.592 701.017 913.703 701.577 913.064 702.375C912.504 703.266 912.223 704.305 912.259 705.356C912.259 706.771 912.498 710.318 912.52 712.624Z" fill="#455A64"/>
<path d="M904.251 735.538C907.384 733.014 914.565 732.687 918.526 732.97C922.539 733.152 926.44 734.35 929.863 736.452C930.367 736.789 930.976 736.935 931.578 736.863C932.181 736.791 932.737 736.506 933.149 736.06C933.389 735.806 933.572 735.503 933.683 735.172C933.795 734.841 933.834 734.49 933.797 734.142C933.759 733.794 933.647 733.459 933.468 733.159C933.288 732.859 933.046 732.602 932.757 732.405C928.975 729.841 924.549 728.393 919.984 728.227C910.279 727.944 907.515 729.706 907.515 729.706C907.515 729.706 903.185 732.709 904.251 735.538Z" fill="#F5F5F5"/>
<path d="M897.201 744.677C901.139 742.131 909.082 742.153 913.02 742.501C916.967 742.751 920.78 744.035 924.075 746.222C924.576 746.558 925.18 746.703 925.779 746.631C926.378 746.559 926.931 746.275 927.339 745.831C927.584 745.58 927.771 745.279 927.886 744.948C928.002 744.617 928.044 744.265 928.009 743.916C927.973 743.568 927.862 743.231 927.682 742.93C927.502 742.629 927.259 742.371 926.969 742.175C923.124 739.478 918.602 737.91 913.912 737.649C904.186 737.344 901.748 739.411 901.748 739.411C900.643 739.891 899.66 740.613 898.873 741.525C898.085 742.436 897.514 743.514 897.201 744.677Z" fill="#F5F5F5"/>
<path d="M923.465 718.826C919.358 718.265 915.176 718.775 911.323 720.306C909.669 721.329 908.647 724.07 909.756 724.658C913.127 723.144 916.82 722.486 920.506 722.743C924.147 722.957 927.725 723.796 931.081 725.224C931.93 725.55 932.931 726.029 933.801 726.464C934.08 726.607 934.385 726.691 934.697 726.712C935.009 726.733 935.322 726.69 935.617 726.587C935.913 726.483 936.183 726.32 936.414 726.108C936.644 725.896 936.829 725.64 936.957 725.354C937.163 724.86 937.179 724.306 937.002 723.8C936.826 723.294 936.469 722.871 935.999 722.613C932.142 720.465 927.867 719.173 923.465 718.826Z" fill="#F5F5F5"/>
<path d="M755.258 724.832C754.269 727.32 754.269 730.091 755.258 732.579C756.215 734.907 767.748 742.131 783.764 741.827C795.674 741.537 807.289 738.066 817.405 731.773C823.694 728.031 830.07 727.574 837.991 727.421C845.911 727.269 856.487 723.896 858.402 720.284C860.317 716.672 858.619 710.209 858.619 710.209L755.258 724.832Z" fill="#1A1B36"/>
<path d="M822.062 678.047L820.822 677.721C820.117 677.507 819.377 677.441 818.646 677.525C817.862 677.713 817.155 678.139 816.622 678.744C814.975 680.674 813.518 682.758 812.27 684.967C808.68 690.255 801.39 694.454 793.556 698.219C788.203 700.765 783.002 702.702 777.497 704.856C771.992 707.01 764.441 708.229 760.089 710.927C753.561 714.866 752.32 725.419 759.24 729.946C765.246 733.862 781.261 738.541 798.409 734.537C807.787 732.361 818.537 722.961 830.723 722.591C838.491 722.351 853.201 720.872 858.445 715.236C860.426 712.733 858.445 704.355 856.683 697.131C854.855 689.254 855.682 677.547 852.157 677.547L851.939 681.485C851.613 682.66 848.849 683.814 847.979 684.728L844.845 688.035C843.561 689.567 841.995 690.837 840.232 691.778C837.12 693.171 833.486 692.344 830.157 691.473C830.026 691.473 831.832 685.424 832.028 684.836C832.225 684.377 832.285 683.871 832.202 683.378C832.035 682.896 831.704 682.488 831.267 682.225C828.52 680.212 825.386 678.79 822.062 678.047Z" fill="#455A64"/>
<path d="M800.998 694.346C801.607 693.31 802.466 692.442 803.496 691.823C804.526 691.203 805.694 690.851 806.895 690.799C810.442 690.32 816.513 693.193 820.234 696.565C820.585 696.882 820.853 697.279 821.016 697.722C821.178 698.166 821.229 698.642 821.164 699.11C821.1 699.578 820.922 700.023 820.646 700.406C820.37 700.79 820.005 701.1 819.582 701.309C819.051 701.572 818.451 701.663 817.866 701.569C817.281 701.476 816.74 701.202 816.317 700.787C812.243 696.729 806.748 694.419 800.998 694.346Z" fill="#F5F5F5"/>
<path d="M789.813 699.938C790.629 698.896 791.683 698.065 792.888 697.515C794.092 696.966 795.411 696.715 796.733 696.783C796.733 696.783 805.916 697.479 811.334 703.05C811.669 703.355 811.924 703.737 812.079 704.163C812.234 704.588 812.284 705.045 812.224 705.494C812.164 705.943 811.997 706.371 811.736 706.741C811.474 707.111 811.128 707.413 810.725 707.62C810.211 707.87 809.633 707.956 809.068 707.867C808.504 707.777 807.981 707.516 807.57 707.119C805.34 704.665 802.585 702.745 799.511 701.502C796.437 700.258 793.122 699.724 789.813 699.938Z" fill="#F5F5F5"/>
<path d="M777.519 704.856C778.443 703.899 779.563 703.153 780.803 702.668C782.042 702.184 783.371 701.973 784.7 702.049C789.902 702.623 794.791 704.824 798.67 708.338C799.004 708.645 799.26 709.029 799.414 709.456C799.569 709.883 799.619 710.341 799.559 710.792C799.499 711.242 799.332 711.672 799.071 712.044C798.81 712.416 798.464 712.719 798.061 712.929C797.546 713.183 796.965 713.269 796.399 713.176C795.833 713.082 795.31 712.813 794.905 712.407C792.793 709.884 790.122 707.888 787.104 706.577C784.086 705.266 780.804 704.677 777.519 704.856Z" fill="#F5F5F5"/>
<path d="M891.195 143.026C901.466 144.201 913.608 144.832 923.422 146.116C936.064 147.769 945.922 160.847 949.012 181.084C952.407 203.367 938.132 267.255 938.132 267.255L942.68 342.59C924.162 356.233 845.302 363.393 806.003 335.017C806.003 335.017 806.917 206.805 809.985 187.047C814.207 159.955 820.865 143.134 851.33 141.198L891.195 143.026Z" fill="#455A64"/>
<path d="M961.415 306.228C958.086 311.799 954.735 317.37 951.297 322.875C950.035 324.92 948.751 326.944 947.423 328.946C946.704 329.926 945.863 330.811 944.921 331.579C943.267 332.711 939.829 331.992 937.827 332.058C927.991 332.391 918.185 333.117 908.407 334.234C907.589 334.208 906.775 334.363 906.023 334.686C905.271 335.009 904.599 335.494 904.055 336.105C903.653 336.948 903.573 337.908 903.829 338.806C904.086 339.703 904.661 340.476 905.448 340.98C907.049 341.941 908.869 342.48 910.735 342.546L919.222 343.547C920.433 343.588 921.608 343.965 922.617 344.635C925.707 347.138 919.809 350.141 918.047 351.359C914.502 353.822 910.719 355.921 906.753 357.626C889.062 365.068 886.908 370.465 890.172 376.601C893.001 381.932 905.23 401.321 936.304 384.631C948.816 377.907 967.856 356.669 976.539 346.398C989.029 331.579 1010.16 298.525 1010.16 298.525C1022.17 282.031 1023.72 275.263 1024 268.409C1024.28 261.554 987.005 208.829 974.341 190.311C961.676 171.793 955.649 149.271 923.422 146.181C923.422 146.181 911.149 185.088 931.473 210.265L978.41 275.742C978.41 275.742 965.985 298.59 961.415 306.228Z" fill="#FFC7C7"/>
<path d="M995.47 215.422C989.443 206.718 983.154 197.753 977.083 188.875C951.514 151.556 953.669 144.723 916.807 144.201C913.543 149.206 911.606 170.748 916.524 192.378C920.637 210.548 936.108 223.365 936.108 223.365L954.561 248.367C954.561 248.367 965.855 248.019 979.389 238.097C987.206 232.621 992.888 224.61 995.47 215.422Z" fill="#37474F"/>
<path d="M915.501 44.9518C913.648 42.1906 911.081 39.9836 908.073 38.5658C905.065 37.148 901.728 36.5724 898.419 36.9005L896.504 83.62L893.371 100.876L893.915 120.09C895.734 119.833 897.458 119.119 898.927 118.016C900.395 116.913 901.561 115.455 902.314 113.78C905.187 108.253 913.194 81.531 913.194 81.531C920.375 59.5748 918.852 49.6521 915.501 44.9518Z" fill="#1A1B36"/>
<path d="M894.328 83.8373C895.136 80.9978 896.691 78.4275 898.833 76.3952C901.509 73.5229 912.172 70.4111 917.024 79.4634C921.877 88.5157 913.695 100.462 907.384 104.118C899.311 108.818 894.567 102.421 894.567 102.421L894.763 145.441C890.999 154.145 874.004 161.892 863.885 160.673C855.834 159.65 848.414 153.318 855.616 144.092L855.029 131.819C855.029 131.819 844.258 133.995 838.926 133.451C830.07 132.537 824.173 125.856 821.039 116.456C815.991 101.354 813.75 89.0815 815.882 58.7911C818.232 25.6066 856.596 23.3653 877.986 35.377C899.377 47.3887 894.328 83.8373 894.328 83.8373Z" fill="#FFC7C7"/>
<path d="M803.675 24.3229C802.695 17.0767 805.198 9.30827 812.792 6.74054C815.579 5.57471 818.638 5.21966 821.618 5.71628C824.598 6.2129 827.377 7.54099 829.635 9.54762C830.587 6.99123 832.233 4.75103 834.388 3.0788C836.543 1.40656 839.122 0.368565 841.835 0.0814615C844.548 -0.205642 847.287 0.269527 849.745 1.45357C852.202 2.63761 854.281 4.4836 855.747 6.78407C857.764 3.72016 860.879 1.54704 864.451 0.712928C866.653 0.221163 868.932 0.17576 871.152 0.579408C873.372 0.983057 875.489 1.82757 877.377 3.06304C880.467 5.34788 884.101 9.59115 883.187 15.0965C889.302 12.6376 895.677 14.6831 900.225 20.0796C902.932 23.3843 904.463 27.495 904.577 31.7649C904.735 33.9828 904.416 36.2087 903.642 38.293C902.771 40.2732 900.987 41.5788 900.465 43.8202C899.705 45.7921 899.314 47.8869 899.311 50.0001C899.812 53.6558 900.617 57.3116 901.096 60.8803C901.611 64.4348 901.909 68.0174 901.988 71.6081C901.874 72.4526 901.58 73.2628 901.126 73.9837C900.672 74.7046 900.068 75.3193 899.355 75.7861C897.323 77.5629 895.749 79.8018 894.763 82.3142C894.002 83.881 893.262 87.7543 891.76 88.8423C887.126 92.0846 886.603 81.5961 886.386 79.5724C886.088 74.9277 886.088 70.2687 886.386 65.624C884.048 65.5938 881.743 65.0749 879.618 64.1005C877.493 63.1261 875.596 61.7179 874.048 59.9663C872.442 57.998 871.384 55.6413 870.979 53.1336C870.728 51.6969 870.612 50.2399 870.631 48.7815C867.606 53.7864 860.578 55.8319 855.573 55.3096C847.173 54.548 844.279 50.9576 842.93 48.3246C842.399 50.9199 841.258 53.3515 839.601 55.4184C837.455 57.4347 834.87 58.9246 832.05 59.7705C829.617 60.4196 827.054 60.3939 824.635 59.6962C822.216 58.9984 820.033 57.655 818.319 55.8101C814.903 60.7062 806.242 58.5302 804.327 57.1593C799.975 54.004 798.561 50.2395 798.082 44.8647C797.603 39.4899 799.779 33.3534 805.742 31.2427C804.667 29.0693 803.968 26.7296 803.675 24.3229Z" fill="#1A1B36"/>
<path d="M855.029 131.754C855.029 131.754 874.483 126.836 881.141 122.832C885.08 120.526 888.228 117.082 890.172 112.953C889.331 117.026 887.681 120.888 885.319 124.312C880.619 130.992 855.247 136.998 855.247 136.998L855.029 131.754Z" fill="#FA9898"/>
<path d="M856.117 82.4014C856.191 83.2256 856.505 84.0101 857.02 84.6573C857.536 85.3045 858.23 85.7859 859.017 86.0416C859.805 86.2973 860.649 86.316 861.447 86.0955C862.245 85.875 862.96 85.4249 863.504 84.8012C864.047 84.1775 864.396 83.4078 864.506 82.5876C864.616 81.7674 864.482 80.933 864.122 80.1881C863.762 79.4432 863.19 78.8206 862.479 78.3978C861.767 77.975 860.948 77.7706 860.121 77.81C858.986 77.8992 857.93 78.4299 857.182 79.2883C856.433 80.1467 856.051 81.2644 856.117 82.4014Z" fill="#1A1B36"/>
<path d="M849.611 113.889C849.71 114.95 850.119 115.959 850.788 116.79C851.456 117.621 852.353 118.237 853.369 118.562C854.385 118.887 855.473 118.906 856.5 118.618C857.526 118.329 858.445 117.745 859.142 116.938C859.84 116.132 860.285 115.138 860.422 114.081C860.559 113.023 860.382 111.949 859.914 110.991C859.446 110.033 858.706 109.234 857.787 108.693C856.868 108.152 855.811 107.893 854.746 107.948C853.281 108.065 851.921 108.754 850.96 109.865C849.999 110.977 849.514 112.422 849.611 113.889Z" fill="#FA9898"/>
<path d="M859.62 67.9089L868.586 72.261C869.144 71.0322 869.209 69.6358 868.768 68.3603C868.327 67.0847 867.412 66.0273 866.214 65.4065C865.619 65.1221 864.973 64.9613 864.314 64.9339C863.655 64.9065 862.998 65.0129 862.382 65.2469C861.765 65.4808 861.203 65.8373 860.728 66.2949C860.254 66.7524 859.877 67.3015 859.62 67.9089Z" fill="#1A1B36"/>
<path d="M820.626 71.6735L828.264 65.1454C827.865 64.6246 827.365 64.1908 826.793 63.8706C826.221 63.5503 825.589 63.3504 824.937 63.2832C824.285 63.2159 823.626 63.2827 823.001 63.4795C822.375 63.6762 821.797 63.9988 821.3 64.4273C820.282 65.3191 819.644 66.5678 819.518 67.9159C819.393 69.2641 819.789 70.609 820.626 71.6735Z" fill="#1A1B36"/>
<path d="M822.911 81.5525C822.963 82.3574 823.253 83.1289 823.742 83.7698C824.232 84.4108 824.9 84.8927 825.663 85.1548C826.426 85.417 827.25 85.4478 828.03 85.2434C828.81 85.0389 829.513 84.6084 830.049 84.0058C830.585 83.4032 830.931 82.6555 831.044 81.8568C831.156 81.058 831.03 80.2438 830.681 79.5165C830.333 78.7892 829.776 78.1813 829.083 77.7692C828.389 77.3571 827.59 77.1592 826.784 77.2004C825.697 77.2732 824.682 77.7702 823.957 78.5842C823.233 79.3981 822.857 80.4641 822.911 81.5525Z" fill="#1A1B36"/>
<path d="M843.104 76.7217L842.974 102.464L829.352 98.5473L843.104 76.7217Z" fill="#FA9898"/>
<path d="M808.919 112.735C809.044 112.707 809.163 112.655 809.268 112.58C809.373 112.505 809.461 112.41 809.528 112.3C809.605 112.193 809.66 112.07 809.689 111.941C809.718 111.812 809.72 111.678 809.696 111.548C809.671 111.418 809.621 111.294 809.547 111.184C809.473 111.074 809.378 110.98 809.267 110.907L797.429 103.03C797.32 102.957 797.196 102.906 797.067 102.88C796.937 102.855 796.804 102.855 796.674 102.882C796.545 102.908 796.422 102.96 796.312 103.034C796.203 103.108 796.109 103.203 796.037 103.313C795.96 103.422 795.907 103.545 795.88 103.675C795.853 103.806 795.852 103.94 795.879 104.07C795.905 104.201 795.958 104.324 796.034 104.433C796.11 104.543 796.207 104.635 796.32 104.706L808.135 112.583C808.247 112.665 808.375 112.721 808.51 112.747C808.646 112.773 808.785 112.769 808.919 112.735Z" fill="#E0E0E0"/>
<path d="M807.657 117.827C807.841 117.781 808.009 117.686 808.143 117.552C808.278 117.418 808.373 117.25 808.418 117.066C808.477 116.803 808.43 116.528 808.288 116.3C808.145 116.072 807.919 115.909 807.657 115.847L793.817 112.648C793.689 112.616 793.555 112.609 793.424 112.629C793.293 112.649 793.167 112.694 793.053 112.763C792.94 112.832 792.841 112.923 792.763 113.03C792.685 113.137 792.629 113.259 792.599 113.388C792.54 113.651 792.587 113.926 792.729 114.154C792.872 114.382 793.099 114.545 793.36 114.607L807.2 117.827C807.351 117.849 807.505 117.849 807.657 117.827Z" fill="#E0E0E0"/>
<path d="M794.796 127.032H794.927L808.266 122.157C808.517 122.065 808.721 121.877 808.833 121.634C808.946 121.391 808.957 121.114 808.865 120.863C808.772 120.612 808.584 120.407 808.341 120.295C808.098 120.183 807.821 120.172 807.57 120.264L794.231 125.138C794.105 125.184 793.991 125.255 793.893 125.346C793.795 125.437 793.717 125.546 793.662 125.668C793.607 125.789 793.578 125.921 793.574 126.054C793.571 126.187 793.594 126.32 793.643 126.444C793.735 126.663 793.901 126.842 794.112 126.949C794.323 127.057 794.566 127.086 794.796 127.032Z" fill="#E0E0E0"/>
<path d="M681.947 231.416C682.223 231.968 682.654 232.428 683.187 232.737C683.72 233.047 684.333 233.194 684.949 233.159C685.565 233.124 686.157 232.91 686.652 232.542C687.148 232.174 687.524 231.669 687.736 231.09L697.658 206.609C697.819 206.217 697.9 205.796 697.894 205.372C697.889 204.948 697.798 204.529 697.627 204.141C697.457 203.752 697.209 203.402 696.9 203.112C696.591 202.821 696.226 202.596 695.828 202.45C695.43 202.304 695.006 202.239 694.583 202.26C694.159 202.281 693.744 202.387 693.362 202.572C692.981 202.758 692.64 203.018 692.361 203.338C692.083 203.657 691.871 204.03 691.74 204.433L681.795 228.914C681.648 229.319 681.586 229.75 681.612 230.181C681.638 230.611 681.752 231.032 681.947 231.416Z" fill="#E0E0E0"/>
<path d="M665.605 231.286C665.922 231.927 666.448 232.442 667.095 232.745C667.743 233.049 668.475 233.124 669.171 232.957C669.866 232.79 670.485 232.391 670.924 231.827C671.364 231.262 671.598 230.565 671.589 229.849L671.263 199.385C671.197 198.596 670.838 197.861 670.255 197.325C669.673 196.789 668.91 196.491 668.119 196.491C667.327 196.491 666.564 196.789 665.982 197.325C665.4 197.861 665.04 198.596 664.974 199.385L665.279 229.849C665.273 230.347 665.385 230.839 665.605 231.286Z" fill="#E0E0E0"/>
<path d="M637.904 214.334L638.1 214.704L653.093 236.465C653.558 237.153 654.275 237.631 655.09 237.794C655.905 237.957 656.751 237.792 657.445 237.335C658.121 236.86 658.588 236.141 658.746 235.33C658.904 234.518 658.742 233.677 658.294 232.983L643.301 211.223C642.864 210.548 642.185 210.066 641.403 209.878C640.621 209.69 639.797 209.81 639.101 210.212C638.405 210.615 637.891 211.269 637.664 212.041C637.437 212.812 637.515 213.641 637.883 214.356L637.904 214.334Z" fill="#E0E0E0"/>
</svg>
